<?xml version="1.0" ?><svg viewBox="0 0 48 48" xmlns="http://www.w3.org/2000/svg"><title/><g id="Dead"><path d="M14,29V25a2,2,0,0,0,0,4Z"/><path d="M31.74,24.9a8.49,8.49,0,0,1-4.67-2.31c-2.7,2.7-8.35,2.49-11.07,2.49V30a8,8,0,0,0,16,0C32,24.43,32.11,25,31.74,24.9ZM19,30a1,1,0,0,1-.71-1.71l.3-.29-.3-.29a1,1,0,0,1,1.42-1.42l.29.3.29-.3a1,1,0,0,1,1.42,1.42l-.3.29.3.29a1,1,0,0,1-1.42,1.42l-.29-.3C19.68,29.74,19.48,30,19,30Zm9,4a2,2,0,0,1-4,0H21a1,1,0,0,1,0-2h6a1,1,0,0,1,1,1Zm1.71-5.71a1,1,0,0,1-1.42,1.42l-.29-.3c-.32.33-.52.59-1,.59a1,1,0,0,1-.71-1.71l.3-.29-.3-.29a1,1,0,0,1,1.42-1.42l.29.3.29-.3a1,1,0,0,1,1.42,1.42l-.3.29Z"/><path d="M15.1,23c2.7.36,9.7.17,11-2.45a1,1,0,0,1,1.72-.1A6.46,6.46,0,0,0,33,23a9,9,0,0,0-18,0h.1Z"/><path d="M36,27a2,2,0,0,0-2-2v4A2,2,0,0,0,36,27Z"/><path d="M33,5.5c0-.63-.6-.5-2-.5V6C32.51,6,33,6.12,33,5.5Z"/><path d="M19,5.5c0-.63-.6-.5-2-.5V6C18.51,6,19,6.12,19,5.5Z"/><path d="M41,43V7a6,6,0,0,0-6-6H13A6,6,0,0,0,7,7V43a2,2,0,0,0-2,2v2H43V45A2,2,0,0,0,41,43ZM29,4a1,1,0,0,1,1-1h2.5a2.5,2.5,0,0,1,0,5H31v2a1,1,0,0,1-2,0ZM24,4a1,1,0,0,1,2,0v6a1,1,0,0,1-2,0ZM15,4a1,1,0,0,1,1-1h2.5a2.49,2.49,0,0,1,1.85,4.16A3,3,0,0,1,21,9v1a1,1,0,0,1-2,0V9a1,1,0,0,0-1-1H17v2a1,1,0,0,1-2,0ZM13,23.14a11,11,0,1,1,22,0A4,4,0,0,1,34,31a10,10,0,0,1-19.9,0A4,4,0,0,1,13,23.14Z"/></g></svg>