<?xml version="1.0" ?><svg data-name="Layer 1" id="Layer_1" viewBox="0 0 70 70" xmlns="http://www.w3.org/2000/svg" xmlns:xlink="http://www.w3.org/1999/xlink"><defs><style>.cls-1,.cls-7{fill:none;}.cls-2{fill:#dee1e5;}.cls-3{fill:#fff;}.cls-4{fill:#ef3d3d;}.cls-5{fill:#ff7e7e;}.cls-6{fill:#ffd41f;}.cls-7{stroke:#1a1a1a;stroke-linecap:round;stroke-linejoin:round;stroke-width:1.5px;}.cls-8{fill:url(#New_Pattern_Swatch_2);}.cls-9{fill:url(#New_Pattern_Swatch_3);}.cls-10{fill:url(#New_Pattern_Swatch_3-3);}.cls-11{fill:url(#New_Pattern_Swatch_2-3);}.cls-12{fill:url(#New_Pattern_Swatch_3-5);}.cls-13{fill:url(#New_Pattern_Swatch_3-7);}.cls-14{fill:url(#New_Pattern_Swatch_4);}.cls-15{fill:url(#New_Pattern_Swatch_5);}</style><pattern data-name="New Pattern Swatch 2" height="23.5" id="New_Pattern_Swatch_2" patternTransform="translate(37.5 -25.88) scale(1.14)" patternUnits="userSpaceOnUse" viewBox="0 0 23.5 23.5" width="23.5"><rect class="cls-1" height="23.5" width="23.5"/><rect class="cls-2" height="23.5" width="23.5"/></pattern><pattern data-name="New Pattern Swatch 3" height="23.5" id="New_Pattern_Swatch_3" patternTransform="translate(37.5 -25.88) scale(1.14)" patternUnits="userSpaceOnUse" viewBox="0 0 23.5 23.5" width="23.5"><rect class="cls-1" height="23.5" width="23.5"/><rect class="cls-3" height="23.5" width="23.5"/></pattern><pattern data-name="New Pattern Swatch 3" height="23.5" id="New_Pattern_Swatch_3-3" patternTransform="matrix(-1.17, 0, 0, 1.17, 51.54, -40.82)" patternUnits="userSpaceOnUse" viewBox="0 0 23.5 23.5" width="23.5"><rect class="cls-1" height="23.5" width="23.5"/><rect class="cls-3" height="23.5" width="23.5"/></pattern><pattern data-name="New Pattern Swatch 2" height="23.5" id="New_Pattern_Swatch_2-3" patternTransform="translate(14.06 -25.88) scale(1.14)" patternUnits="userSpaceOnUse" viewBox="0 0 23.5 23.5" width="23.5"><rect class="cls-1" height="23.5" width="23.5"/><rect class="cls-2" height="23.5" width="23.5"/></pattern><pattern data-name="New Pattern Swatch 3" height="23.5" id="New_Pattern_Swatch_3-5" patternTransform="translate(14.06 -25.88) scale(1.14)" patternUnits="userSpaceOnUse" viewBox="0 0 23.5 23.5" width="23.5"><rect class="cls-1" height="23.5" width="23.5"/><rect class="cls-3" height="23.5" width="23.5"/></pattern><pattern data-name="New Pattern Swatch 3" height="23.5" id="New_Pattern_Swatch_3-7" patternTransform="translate(46.51 -40.82) scale(1.17)" patternUnits="userSpaceOnUse" viewBox="0 0 23.5 23.5" width="23.5"><rect class="cls-1" height="23.5" width="23.5"/><rect class="cls-3" height="23.5" width="23.5"/></pattern><pattern data-name="New Pattern Swatch 4" height="23.5" id="New_Pattern_Swatch_4" patternTransform="translate(16.84 4.17)" patternUnits="userSpaceOnUse" viewBox="0 0 23.5 23.5" width="23.5"><rect class="cls-1" height="23.5" width="23.5"/><rect class="cls-4" height="23.5" width="23.5"/></pattern><pattern data-name="New Pattern Swatch 5" height="23.5" id="New_Pattern_Swatch_5" patternTransform="translate(16.84 4.17)" patternUnits="userSpaceOnUse" viewBox="0 0 23.5 23.5" width="23.5"><rect class="cls-1" height="23.5" width="23.5"/><rect class="cls-5" height="23.5" width="23.5"/></pattern></defs><title/><path class="cls-6" d="M67,36.63A32,32,0,1,1,50.28,6.88,32.14,32.14,0,0,1,67,36.63Z"/><circle class="cls-7" cx="35" cy="35" r="32"/><path class="cls-8" d="M54.15,27a7.52,7.52,0,0,1-14.93,1.26A7.53,7.53,0,0,0,51,22.09a7.36,7.36,0,0,0-.11-1.25A7.49,7.49,0,0,1,54.15,27Z"/><path class="cls-9" d="M51,22.09a7.53,7.53,0,0,1-11.79,6.2A7.52,7.52,0,0,1,50.9,20.84,7.36,7.36,0,0,1,51,22.09Z"/><circle cx="43.76" cy="27.02" r="3.66"/><ellipse class="cls-10" cx="42.45" cy="27.02" rx="1" ry="1.47"/><circle class="cls-7" cx="46.63" cy="27.02" r="7.52"/><path class="cls-11" d="M30.7,27a7.52,7.52,0,0,1-14.93,1.26,7.53,7.53,0,0,0,11.79-6.2,7.36,7.36,0,0,0-.11-1.25A7.49,7.49,0,0,1,30.7,27Z"/><path class="cls-12" d="M27.56,22.09a7.53,7.53,0,0,1-11.79,6.2,7.52,7.52,0,0,1,11.68-7.45A7.36,7.36,0,0,1,27.56,22.09Z"/><circle cx="26.05" cy="27.02" r="3.66"/><ellipse class="cls-13" cx="27.36" cy="27.02" rx="1" ry="1.47"/><circle class="cls-7" cx="23.18" cy="27.02" r="7.52"/><path class="cls-14" d="M48.54,46.07A13.84,13.84,0,0,1,35,58.42a13.09,13.09,0,0,1-6.31-1.61,19.58,19.58,0,0,0,10.59-5.63h0A17.56,17.56,0,0,0,48.54,46.07Z"/><path class="cls-15" d="M39.29,51.18A19.58,19.58,0,0,1,28.7,56.81h0a14.14,14.14,0,0,1-7.21-10.74A18.39,18.39,0,0,0,35,51.64,20,20,0,0,0,39.29,51.18Z"/><path class="cls-7" d="M48.53,46.07A13.83,13.83,0,0,1,35,58.41,13.83,13.83,0,0,1,21.47,46.07,18.39,18.39,0,0,0,35,51.64,18.39,18.39,0,0,0,48.53,46.07Z"/><path class="cls-7" d="M19.84,49.59a4.12,4.12,0,0,1,1.64-3.52,4.38,4.38,0,0,1,3.75-.79"/><path class="cls-7" d="M50.18,49.59a4.12,4.12,0,0,0-1.64-3.52,4.38,4.38,0,0,0-3.75-.79"/></svg>